# xmcd
#
# Track frame offsets:
#	150
#	18790
#	36030
#	53610
#	70087
#	87517
#	105180
#	123095
#	139775
#	154817
#	171025
#	189117
#
# Disc length: 2757 seconds
# Revision: 4
# Processed by: cddbd v1.5.2PL0 Copyright (c) Steve Scherf et al.
# Submitted via: dBpowerAMP V12.0
#
DISCID=860ac30c
DTITLE=鄭秀文 - 聽聞 [dB+1]
DYEAR=1999
DGENRE=Chinese Pop
TTITLE0=懶理
TTITLE1=寵物
TTITLE2=唯獨你一個
TTITLE3=今晚不可以
TTITLE4=無藥可救
TTITLE5=祝你快樂
TTITLE6=真命天子
TTITLE7=愛你是我一生中理想
TTITLE8=破例
TTITLE9=環遊世界
TTITLE10=真命天子
TTITLE11=最重要的人
EXTD=
EXTT0=
EXTT1=
EXTT2=
EXTT3=
EXTT4=
EXTT5=
EXTT6=
EXTT7=
EXTT8=
EXTT9=
EXTT10=
EXTT11=
PLAYORDER=
